<?xml version="1.0" encoding="utf-8"?>
<!-- Generator: Adobe Illustrator 16.0.0, SVG Export Plug-In . SVG Version: 6.00 Build 0)  -->
<!DOCTYPE svg PUBLIC "-//W3C//DTD SVG 1.1//EN" "http://www.w3.org/Graphics/SVG/1.1/DTD/svg11.dtd">
<svg version="1.1" id="Layer_1" xmlns="http://www.w3.org/2000/svg" xmlns:xlink="http://www.w3.org/1999/xlink" x="0px" y="0px"
	 width="512px" height="512px" viewBox="0 0 512 512" enable-background="new 0 0 512 512" xml:space="preserve">
<g>
	<g>
		<path fill-rule="evenodd" clip-rule="evenodd" d="M194.994,52.5c-88.083,0-159.5,71.411-159.5,159.5
			c0,88.09,159.5,265.833,159.5,265.833S354.5,300.091,354.5,212C354.5,123.91,283.083,52.5,194.994,52.5z M194.994,278.455
			c-44.042,0-79.75-35.705-79.75-79.747c0-44.048,35.708-79.75,79.75-79.75c44.047,0,79.75,35.702,79.75,79.75
			C274.744,242.75,239.041,278.455,194.994,278.455z"/>
	</g>
</g>
<path fill="#010101" d="M333.387,363.421c2.82-9.66,11.78-17.25,21.841-18.189c7.119-0.891,14.51,1.569,19.829,6.359
	c8.061,7.74,15.66,15.971,23.87,23.551c7.2-7.471,14.641-14.7,21.95-22.08c4.28-4.471,10.14-7.44,16.34-7.88
	c9.761-1.091,19.67,4.329,24.471,12.81c5.689,9.42,4.069,22.43-3.591,30.29c-7.6,7.78-15.46,15.3-23,23.14
	c4.841,5.21,10.061,10.04,15,15.15c4.42,4.59,9.641,8.68,12.48,14.53c4.67,9.369,2.71,21.54-4.76,28.909
	c-7.12,7.74-19.221,9.95-28.75,5.671c-3.771-1.66-6.87-4.461-9.73-7.37c-6.76-6.9-13.68-13.63-20.42-20.551
	c-8.2,7.57-15.76,15.811-23.83,23.511c-5.27,4.92-12.74,7.21-19.87,6.399c-11.479-1-21.34-10.859-22.67-22.27
	c-1.01-7.51,1.59-15.36,6.851-20.811c7.58-7.81,15.47-15.33,23.01-23.17c-5.72-6-11.72-11.72-17.521-17.64
	c-3.109-3.22-6.699-6.1-8.949-10.04C332.267,377.72,331.367,370.161,333.387,363.421z"/>
</svg>
